<?xml version="1.0" encoding="UTF-8" standalone="no"?>
<svg
   xmlns:dc="http://purl.org/dc/elements/1.1/"
   xmlns:cc="http://creativecommons.org/ns#"
   xmlns:rdf="http://www.w3.org/1999/02/22-rdf-syntax-ns#"
   xmlns:svg="http://www.w3.org/2000/svg"
   xmlns="http://www.w3.org/2000/svg"
   xmlns:sodipodi="http://sodipodi.sourceforge.net/DTD/sodipodi-0.dtd"
   xmlns:inkscape="http://www.inkscape.org/namespaces/inkscape"
   version="1.1"
   id="svg2"
   xml:space="preserve"
   width="750.05066"
   height="245.80533"
   viewBox="0 0 750.05066 245.80533"
   sodipodi:docname="UniversityofPennsylvania_FullLogo_CMYK_mono.ai"><metadata
     id="metadata8"><rdf:RDF><cc:Work
         rdf:about=""><dc:format>image/svg+xml</dc:format><dc:type
           rdf:resource="http://purl.org/dc/dcmitype/StillImage" /></cc:Work></rdf:RDF></metadata><defs
     id="defs6"><clipPath
       clipPathUnits="userSpaceOnUse"
       id="clipPath18"><path
         d="M 0,184.354 H 562.538 V 0 H 0 Z"
         id="path16" /></clipPath></defs><sodipodi:namedview
     pagecolor="#ffffff"
     bordercolor="#666666"
     borderopacity="1"
     objecttolerance="10"
     gridtolerance="10"
     guidetolerance="10"
     inkscape:pageopacity="0"
     inkscape:pageshadow="2"
     inkscape:window-width="640"
     inkscape:window-height="480"
     id="namedview4" /><g
     id="g10"
     inkscape:groupmode="layer"
     inkscape:label="UniversityofPennsylvania_FullLogo_CMYK_mono"
     transform="matrix(1.3333333,0,0,-1.3333333,0,245.80533)"><g
       id="g12"><g
         id="g14"
         clip-path="url(#clipPath18)"><g
           id="g20"
           transform="translate(210.4248,65.9478)"><path
             d="m 0,0 c 0,-17.36 4.157,-22.25 15.894,-22.25 v -4.159 h -50.372 v 4.159 c 9.782,0 15.895,3.18 15.895,21.763 v 87.782 c 0,17.118 -4.157,22.252 -15.895,22.252 v 4.158 h 51.105 c 38.637,0 54.285,-20.54 54.285,-39.858 0,-23.23 -17.606,-36.19 -49.394,-36.19 -6.113,0 -11.248,0.245 -21.518,1.468 z m 0,45.482 c 6.358,-2.2 10.026,-2.445 17.361,-2.445 20.785,0 33.991,11.248 33.991,30.321 0,14.916 -8.316,34.967 -33.991,34.967 H 0 Z"
             style="fill:#231f20;fill-opacity:1;fill-rule:nonzero;stroke:none"
             id="path22" /></g><g
           id="g24"
           transform="translate(284.5146,92.357)"><path
             d="m 0,0 c -0.488,-38.881 22.742,-48.659 34.479,-48.659 11.984,0 18.095,4.154 30.568,18.096 v -6.36 c -10.515,-13.45 -20.541,-18.583 -35.701,-18.583 -27.145,0 -46.705,18.826 -46.705,44.992 0,26.163 19.072,46.704 43.524,46.704 C 46.218,36.19 64.801,20.051 63.579,0 Z M 47.192,4.158 C 47.929,23.23 34.97,31.055 23.964,31.055 9.54,31.055 0.979,20.295 0,4.158 Z"
             style="fill:#231f20;fill-opacity:1;fill-rule:nonzero;stroke:none"
             id="path26" /></g><g
           id="g28"
           transform="translate(441.9844,58.3696)"><path
             d="m 0,0 c 0,-11.249 2.451,-14.672 14.674,-14.672 v -4.159 h -46.216 v 4.159 c 11.737,0 14.917,2.689 14.917,10.758 v 45.238 c 0,13.937 -10.026,19.805 -19.319,19.805 -8.555,0 -16.137,-5.378 -24.694,-16.871 V 1.954 c 0,-13.203 1.708,-16.626 14.672,-16.626 v -4.159 h -45.727 v 4.159 c 11.493,0 14.427,0.979 14.427,16.626 v 48.661 c 0,10.514 -2.691,12.716 -14.427,12.716 v 4.156 l 26.896,2.69 h 4.159 V 52.815 c 10.27,11.738 20.296,17.362 31.299,17.362 C -14.91,70.177 0,59.907 0,39.123 Z"
             style="fill:#231f20;fill-opacity:1;fill-rule:nonzero;stroke:none"
             id="path30" /></g><g
           id="g32"
           transform="translate(547.8662,58.3696)"><path
             d="m 0,0 c 0,-11.249 2.444,-14.672 14.671,-14.672 v -4.159 h -46.214 v 4.159 c 11.735,0 14.911,2.689 14.911,10.758 v 45.238 c 0,13.937 -10.022,19.805 -19.312,19.805 -8.562,0 -16.14,-5.378 -24.701,-16.871 V 1.954 c 0,-13.203 1.715,-16.626 14.672,-16.626 v -4.159 H -91.7 v 4.159 c 11.493,0 14.43,0.979 14.43,16.626 v 48.661 c 0,10.514 -2.689,12.716 -14.43,12.716 v 4.156 l 26.9,2.69 h 4.155 V 52.815 c 10.27,11.738 20.298,17.362 31.299,17.362 C -14.917,70.177 0,59.907 0,39.123 Z"
             style="fill:#231f20;fill-opacity:1;fill-rule:nonzero;stroke:none"
             id="path34" /></g><g
           id="g36"
           transform="translate(180.9165,14.6743)"><path
             d="m 0,0 c 0,-3.882 1.054,-6.851 5.188,-6.851 3.8,0 5.798,2.552 5.798,6.992 v 7.71 c 0,0.582 -0.112,1.052 -0.168,1.499 -0.138,0.999 -1.081,1.387 -2.384,1.523 v 0.724 H 14.98 V 10.873 C 13.648,10.737 12.732,10.349 12.594,9.35 12.539,8.903 12.428,8.433 12.428,7.851 V 0.029 c 0,-5.963 -3.801,-8.185 -7.379,-8.185 -5.909,0 -7.739,2.999 -7.739,8.015 v 8.268 c 0,2.581 0.111,2.441 -2.387,2.746 v 0.724 H 2.386 V 10.873 C -0.111,10.568 0,10.708 0,8.127 Z"
             style="fill:#231f20;fill-opacity:1;fill-rule:nonzero;stroke:none"
             id="path38" /></g><g
           id="g40"
           transform="translate(211.6025,6.853)"><path
             d="M 0,0 C -3.404,4.022 -6.936,8.238 -10.424,12.348 V 2.887 c 0,-0.447 0.086,-0.81 0.128,-1.153 0.107,-0.772 0.835,-1.073 2.248,-1.176 V 0 h -5.245 v 0.558 c 1.028,0.103 1.734,0.404 1.841,1.176 0.043,0.343 0.129,0.706 0.129,1.153 v 10.085 c -0.6,0.767 -1.263,1.453 -2.483,1.453 v 0.557 h 3.895 c 3.189,-3.874 6.507,-7.813 9.696,-11.686 h 0.042 v 8.796 c 0,0.45 -0.085,0.813 -0.127,1.156 -0.108,0.773 -0.835,1.069 -2.248,1.177 v 0.557 H 2.696 V 14.425 C 1.689,14.317 0.962,14.021 0.856,13.248 0.812,12.905 0.728,12.542 0.728,12.092 V 0 Z"
             style="fill:#231f20;fill-opacity:1;fill-rule:nonzero;stroke:none"
             id="path42" /></g><g
           id="g44"
           transform="translate(222.5825,9.5288)"><path
             d="m 0,0 c 0,-1.99 -0.086,-1.883 1.84,-2.118 v -0.558 h -5.758 v 0.558 c 1.926,0.235 1.842,0.128 1.842,2.118 v 9.631 c 0,1.99 0.084,1.883 -1.842,2.118 v 0.558 H 1.84 V 11.749 C -0.086,11.514 0,11.621 0,9.631 Z"
             style="fill:#231f20;fill-opacity:1;fill-rule:nonzero;stroke:none"
             id="path46" /></g><g
           id="g48"
           transform="translate(233.5415,21.2778)"><path
             d="m 0,0 c -1.178,0 -2.034,-0.343 -1.328,-2.396 0.835,-2.527 2.077,-6.206 3.191,-9.46 1.367,3.275 2.675,6.57 4.002,9.845 C 6.4,-0.665 5.844,0 4.387,0 V 0.558 H 9.011 V 0 C 8.39,0 7.684,-0.215 7.233,-1.284 5.436,-5.67 3.618,-10.039 1.818,-14.425 H 0.727 c -1.304,3.7 -2.761,7.834 -4.066,11.472 C -4.131,-0.665 -4.795,0 -5.821,0 V 0.558 H 0 Z"
             style="fill:#231f20;fill-opacity:1;fill-rule:nonzero;stroke:none"
             id="path50" /></g><g
           id="g52"
           transform="translate(245.8491,7.4107)"><path
             d="m 0,0 c 1.926,0.235 1.839,0.128 1.839,2.118 v 9.631 c 0,1.99 0.087,1.883 -1.839,2.118 v 0.558 H 9.567 V 10.977 H 9.012 C 8.796,12.563 8.369,13.739 6.827,13.739 H 3.916 v -6.12 h 1.799 c 1.349,0 1.927,0.532 1.969,1.862 H 8.24 V 4.923 H 7.684 C 7.642,6.182 7.149,6.934 5.715,6.934 H 3.916 v -4.84 c 0,-1.818 0.835,-1.966 2.761,-1.966 3.104,0 2.954,0.875 3.939,3.167 h 0.556 L 10.53,-0.558 H 0 Z"
             style="fill:#231f20;fill-opacity:1;fill-rule:nonzero;stroke:none"
             id="path54" /></g><g
           id="g56"
           transform="translate(260.2969,21.8355)"><path
             d="m 0,0 h 6.229 c 2.161,0 4.324,-1.136 4.324,-3.639 0,-2.205 -1.349,-3.724 -2.996,-4.369 l 2.097,-3.187 c 1.07,-1.562 2.269,-3.061 3.015,-3.511 v -0.276 h -2.203 c -1.262,0 -1.947,2.333 -4.537,6.636 H 3.916 v -3.961 c 0,-1.99 -0.085,-1.882 1.841,-2.118 v -0.557 H 0 v 0.557 c 1.926,0.236 1.839,0.128 1.839,2.118 v 9.631 c 0,1.99 0.087,1.883 -1.839,2.118 z m 3.916,-7.665 h 1.778 c 1.863,0 2.719,1.413 2.719,3.832 0,2.334 -1.286,3.147 -2.848,3.147 H 3.916 Z"
             style="fill:#231f20;fill-opacity:1;fill-rule:nonzero;stroke:none"
             id="path58" /></g><g
           id="g60"
           transform="translate(283.5654,18.647)"><path
             d="m 0,0 c -0.173,1.495 -0.987,2.697 -2.698,2.697 -1.243,0 -2.355,-0.644 -2.355,-2.226 0,-1.499 1.499,-2.4 3.64,-4.006 2.267,-1.689 2.995,-2.778 2.995,-4.559 0,-2.544 -2.612,-3.956 -5.181,-3.956 -1.368,0 -2.546,0.256 -3.658,0.682 -0.086,0.045 -0.152,0.132 -0.152,0.301 v 3.081 h 0.558 c 0.235,-2.375 1.798,-3.317 3.447,-3.317 1.52,0 2.759,1.157 2.759,2.718 0,1.392 -0.749,2.527 -3.96,4.646 -1.155,0.772 -2.588,1.606 -2.588,3.939 0,1.925 2.14,3.444 4.601,3.444 0.92,0 2.141,-0.107 2.996,-0.404 C 0.533,2.994 0.552,2.912 0.552,2.805 V 0 Z"
             style="fill:#231f20;fill-opacity:1;fill-rule:nonzero;stroke:none"
             id="path62" /></g><g
           id="g64"
           transform="translate(292.9189,9.5288)"><path
             d="m 0,0 c 0,-1.99 -0.089,-1.883 1.838,-2.118 v -0.558 h -5.757 v 0.558 c 1.928,0.235 1.841,0.128 1.841,2.118 v 9.631 c 0,1.99 0.087,1.883 -1.841,2.118 v 0.558 H 1.838 V 11.749 C -0.089,11.514 0,11.621 0,9.631 Z"
             style="fill:#231f20;fill-opacity:1;fill-rule:nonzero;stroke:none"
             id="path66" /></g><g
           id="g68"
           transform="translate(305.333,9.5288)"><path
             d="M 0,0 C 0,-1.99 -0.087,-1.883 1.842,-2.118 V -2.676 H -3.92 v 0.558 c 1.928,0.235 1.841,0.128 1.841,2.118 v 11.621 h -1.924 c -1.862,0 -2.292,-1.177 -2.998,-2.59 h -0.537 l 0.579,3.276 H 4.88 L 5.459,9.031 H 4.922 c -0.706,1.413 -1.135,2.59 -2.998,2.59 H 0 Z"
             style="fill:#231f20;fill-opacity:1;fill-rule:nonzero;stroke:none"
             id="path70" /></g><g
           id="g72"
           transform="translate(317.0186,7.4107)"><path
             d="m 0,0 c 1.925,0.235 1.842,0.128 1.842,2.118 v 3.296 l -3.301,6.528 c -0.704,1.392 -1.304,1.925 -2.287,1.925 v 0.558 h 5.457 v -0.558 c -1.624,0 -1.476,-0.813 -0.943,-1.925 L 3.362,6.57 6.313,11.942 c 0.728,1.306 0.043,1.925 -1.221,1.925 v 0.558 h 4.41 v -0.558 c -0.598,0 -1.178,-0.276 -1.755,-1.304 L 4.176,6.079 C 3.961,5.649 3.916,5.051 3.916,4.514 V 2.118 C 3.916,0.128 3.832,0.235 5.758,0 V -0.558 H 0 Z"
             style="fill:#231f20;fill-opacity:1;fill-rule:nonzero;stroke:none"
             id="path74" /></g><g
           id="g76"
           transform="translate(336.2656,11.9819)"><path
             d="m 0,0 c 0,3.634 3.136,9.073 7.769,9.073 3.691,0 4.493,-2.499 4.493,-4.993 0,-3.052 -2.441,-9.544 -7.739,-9.544 C 0.971,-5.464 0,-2.605 0,0 m 9.71,5.41 c 0,2.887 -1.747,2.998 -2.189,2.998 -2.998,0 -4.968,-5.381 -4.968,-8.99 0,-1.441 0.254,-4.047 2.304,-4.047 3.164,0 4.853,5.215 4.853,10.039"
             style="fill:#231f20;fill-opacity:1;fill-rule:nonzero;stroke:none"
             id="path78" /></g><g
           id="g80"
           transform="translate(362.4824,20.1382)"><path
             d="m 0,0 -0.666,-0.582 h -3.633 c -1.359,-6.6 -3.582,-15.396 -5.159,-19.612 h -1.252 l 3.969,19.612 h -2.634 l 0.247,1.164 h 2.611 c 1.47,5.909 6.352,6.521 7.517,6.521 0.634,0 1.968,-0.112 2.385,-0.499 L 3.051,4.773 2.357,4.439 C 1.971,5.187 1.082,6.05 -0.083,6.05 -1.747,6.05 -2.994,4.91 -3.664,1.916 L -3.965,0.582 h 4.076 z"
             style="fill:#231f20;fill-opacity:1;fill-rule:nonzero;stroke:none"
             id="path82" /></g><g
           id="g84"
           transform="translate(379.4053,10.3179)"><path
             d="M 0,0 C 0,-2.577 -0.111,-2.44 2.383,-2.746 V -3.465 H -5.08 v 0.719 c 2.499,0.306 2.387,0.169 2.387,2.746 v 12.483 c 0,2.581 0.112,2.442 -2.387,2.746 v 0.724 h 7.268 c 4.606,0 6.88,-1.83 6.88,-5.162 0,-3.994 -3.604,-6.157 -7.85,-5.906 v 0.553 c 3.469,-0.053 5.075,2.024 5.075,5.076 0,3.109 -1.495,4.55 -4.604,4.55 H 0 Z"
             style="fill:#231f20;fill-opacity:1;fill-rule:nonzero;stroke:none"
             id="path86" /></g><g
           id="g88"
           transform="translate(392.2969,7.4107)"><path
             d="m 0,0 c 1.931,0.235 1.844,0.128 1.844,2.118 v 9.631 c 0,1.99 0.087,1.883 -1.844,2.118 v 0.558 H 9.569 V 10.977 H 9.012 C 8.798,12.563 8.371,13.739 6.831,13.739 H 3.92 v -6.12 h 1.797 c 1.349,0 1.929,0.532 1.969,1.862 H 8.244 V 4.923 H 7.686 C 7.646,6.182 7.148,6.934 5.717,6.934 H 3.92 v -4.84 c 0,-1.818 0.835,-1.966 2.76,-1.966 3.103,0 2.955,0.875 3.938,3.167 h 0.559 L 10.531,-0.558 H 0 Z"
             style="fill:#231f20;fill-opacity:1;fill-rule:nonzero;stroke:none"
             id="path90" /></g><g
           id="g92"
           transform="translate(420.4668,6.853)"><path
             d="M 0,0 C -3.404,4.022 -6.936,8.238 -10.424,12.348 V 2.887 c 0,-0.447 0.087,-0.81 0.129,-1.153 0.106,-0.772 0.833,-1.073 2.245,-1.176 V 0 h -5.239 v 0.558 c 1.023,0.103 1.729,0.404 1.838,1.176 0.044,0.343 0.126,0.706 0.126,1.153 v 10.085 c -0.598,0.767 -1.258,1.453 -2.482,1.453 v 0.557 h 3.895 C -6.72,11.108 -3.404,7.169 -0.216,3.296 h 0.047 v 8.796 c 0,0.45 -0.087,0.813 -0.129,1.156 -0.108,0.773 -0.834,1.069 -2.25,1.177 v 0.557 H 2.695 V 14.425 C 1.693,14.317 0.962,14.021 0.858,13.248 0.812,12.905 0.725,12.542 0.725,12.092 V 0 Z"
             style="fill:#231f20;fill-opacity:1;fill-rule:nonzero;stroke:none"
             id="path94" /></g><g
           id="g96"
           transform="translate(439.6436,6.853)"><path
             d="M 0,0 C -3.401,4.022 -6.933,8.238 -10.424,12.348 V 2.887 c 0,-0.447 0.087,-0.81 0.129,-1.153 0.108,-0.772 0.834,-1.073 2.246,-1.176 V 0 h -5.239 v 0.558 c 1.023,0.103 1.729,0.404 1.837,1.176 0.047,0.343 0.129,0.706 0.129,1.153 v 10.085 c -0.601,0.767 -1.26,1.453 -2.483,1.453 v 0.557 h 3.896 c 3.19,-3.874 6.508,-7.813 9.694,-11.686 h 0.046 v 8.796 c 0,0.45 -0.087,0.813 -0.129,1.156 -0.105,0.773 -0.833,1.069 -2.25,1.177 v 0.557 H 2.696 V 14.425 C 1.694,14.317 0.963,14.021 0.858,13.248 0.814,12.905 0.728,12.542 0.728,12.092 V 0 Z"
             style="fill:#231f20;fill-opacity:1;fill-rule:nonzero;stroke:none"
             id="path98" /></g><g
           id="g100"
           transform="translate(453.5781,18.647)"><path
             d="m 0,0 c -0.17,1.495 -0.983,2.697 -2.698,2.697 -1.238,0 -2.354,-0.644 -2.354,-2.226 0,-1.499 1.499,-2.4 3.639,-4.006 2.271,-1.689 2.998,-2.778 2.998,-4.559 0,-2.544 -2.608,-3.956 -5.178,-3.956 -1.372,0 -2.548,0.256 -3.664,0.682 -0.083,0.045 -0.148,0.132 -0.148,0.301 v 3.081 h 0.558 c 0.235,-2.375 1.795,-3.317 3.445,-3.317 1.517,0 2.76,1.157 2.76,2.718 0,1.392 -0.746,2.527 -3.96,4.646 -1.156,0.772 -2.589,1.606 -2.589,3.939 0,1.925 2.139,3.444 4.6,3.444 0.922,0 2.145,-0.107 2.998,-0.404 C 0.536,2.994 0.558,2.912 0.558,2.805 V 0 Z"
             style="fill:#231f20;fill-opacity:1;fill-rule:nonzero;stroke:none"
             id="path102" /></g><g
           id="g104"
           transform="translate(462.2041,7.4107)"><path
             d="m 0,0 c 1.929,0.235 1.842,0.128 1.842,2.118 v 3.296 l -3.296,6.528 c -0.707,1.392 -1.305,1.925 -2.292,1.925 v 0.558 h 5.461 v -0.558 c -1.628,0 -1.48,-0.813 -0.944,-1.925 L 3.362,6.57 6.313,11.942 c 0.728,1.306 0.047,1.925 -1.217,1.925 v 0.558 h 4.411 v -0.558 c -0.603,0 -1.183,-0.276 -1.755,-1.304 L 4.176,6.079 C 3.96,5.649 3.918,5.051 3.918,4.514 V 2.118 C 3.918,0.128 3.831,0.235 5.758,0 V -0.558 H 0 Z"
             style="fill:#231f20;fill-opacity:1;fill-rule:nonzero;stroke:none"
             id="path106" /></g><g
           id="g108"
           transform="translate(475.2158,7.4107)"><path
             d="m 0,0 c 1.929,0.235 1.842,0.128 1.842,2.118 v 9.631 c 0,1.99 0.087,1.883 -1.842,2.118 v 0.558 H 5.762 V 13.867 C 3.834,13.632 3.92,13.739 3.92,11.749 V 1.775 c 0,-1.499 0.833,-1.647 2.738,-1.647 3.105,0 2.978,0.875 3.961,3.167 h 0.537 L 10.511,-0.558 H 0 Z"
             style="fill:#231f20;fill-opacity:1;fill-rule:nonzero;stroke:none"
             id="path110" /></g><g
           id="g112"
           transform="translate(493.8418,21.2778)"><path
             d="m 0,0 c -1.178,0 -2.036,-0.343 -1.33,-2.396 0.837,-2.527 2.076,-6.206 3.192,-9.46 1.367,3.275 2.675,6.57 4.001,9.845 C 6.4,-0.665 5.844,0 4.385,0 V 0.558 H 9.012 V 0 C 8.392,0 7.682,-0.215 7.235,-1.284 5.434,-5.67 3.617,-10.039 1.816,-14.425 H 0.728 c -1.307,3.7 -2.764,7.834 -4.069,11.472 C -4.134,-0.665 -4.796,0 -5.823,0 V 0.558 H 0 Z"
             style="fill:#231f20;fill-opacity:1;fill-rule:nonzero;stroke:none"
             id="path114" /></g><g
           id="g116"
           transform="translate(506.4033,11.8169)"><path
             d="m 0,0 -0.983,-2.866 c -0.28,-0.834 0.129,-1.54 1.07,-1.54 v -0.558 h -3.896 v 0.558 c 0.58,0 1.2,0.363 1.542,1.069 0.922,1.883 3.423,8.883 5.2,13.611 H 4.134 C 5.588,5.972 7.772,-0.619 8.5,-2.523 8.969,-3.726 9.313,-4.406 10.233,-4.406 V -4.964 H 5.245 v 0.558 c 1.35,0 1.479,0.706 1.136,1.647 L 5.459,0 Z M 5.182,0.813 2.911,7.771 H 2.871 L 0.323,0.813 Z"
             style="fill:#231f20;fill-opacity:1;fill-rule:nonzero;stroke:none"
             id="path118" /></g><g
           id="g120"
           transform="translate(533.1182,6.853)"><path
             d="M 0,0 C -3.402,4.022 -6.937,8.238 -10.424,12.348 V 2.887 c 0,-0.447 0.082,-0.81 0.129,-1.153 0.107,-0.772 0.833,-1.073 2.245,-1.176 V 0 h -5.243 v 0.558 c 1.027,0.103 1.733,0.404 1.842,1.176 0.042,0.343 0.129,0.706 0.129,1.153 v 10.085 c -0.601,0.767 -1.265,1.453 -2.483,1.453 v 0.557 h 3.895 c 3.186,-3.874 6.508,-7.813 9.694,-11.686 h 0.042 v 8.796 c 0,0.45 -0.082,0.813 -0.129,1.156 -0.105,0.773 -0.833,1.069 -2.245,1.177 v 0.557 H 2.696 V 14.425 C 1.689,14.317 0.962,14.021 0.854,13.248 0.814,12.905 0.728,12.542 0.728,12.092 V 0 Z"
             style="fill:#231f20;fill-opacity:1;fill-rule:nonzero;stroke:none"
             id="path122" /></g><g
           id="g124"
           transform="translate(543.2393,9.5288)"><path
             d="m 0,0 c 0,-1.99 -0.082,-1.883 1.842,-2.118 v -0.558 h -5.755 v 0.558 c 1.924,0.235 1.842,0.128 1.842,2.118 v 9.631 c 0,1.99 0.082,1.883 -1.842,2.118 v 0.558 H 1.842 V 11.749 C -0.082,11.514 0,11.621 0,9.631 Z"
             style="fill:#231f20;fill-opacity:1;fill-rule:nonzero;stroke:none"
             id="path126" /></g><g
           id="g128"
           transform="translate(552.1895,11.8169)"><path
             d="m 0,0 -0.987,-2.866 c -0.277,-0.834 0.127,-1.54 1.072,-1.54 v -0.558 h -3.897 v 0.558 c 0.578,0 1.197,0.363 1.54,1.069 0.921,1.883 3.427,8.883 5.203,13.611 H 4.13 C 5.587,5.972 7.767,-0.619 8.498,-2.523 8.97,-3.726 9.308,-4.406 10.228,-4.406 V -4.964 H 5.244 v 0.558 c 1.347,0 1.474,0.706 1.131,1.647 L 5.46,0 Z M 5.179,0.813 2.912,7.771 H 2.865 L 0.322,0.813 Z"
             style="fill:#231f20;fill-opacity:1;fill-rule:nonzero;stroke:none"
             id="path130" /></g><g
           id="g132"
           transform="translate(158.9429,184.354)"><path
             d="m 0,0 h -158.943 c 0,0 0.001,-78.813 0.001,-79.23 -0.106,-34.491 19.007,-59.471 35.06,-74.355 17.654,-16.367 37.117,-25.805 43.621,-27.222 l 0.789,-0.17 0.797,0.171 c 6.497,1.416 25.959,10.854 43.613,27.221 16.054,14.884 35.166,39.864 35.061,74.353 C -0.003,-78.245 0,0 0,0"
             style="fill:#ffffff;fill-opacity:1;fill-rule:nonzero;stroke:none"
             id="path134" /></g><g
           id="g136"
           transform="translate(4.019,180.169)"><path
             d="m 0,0 c 0,0 0.21,-46.044 -0.009,-45.823 l 150.93,-10e-4 V 0 Z m 40.501,-28.988 h 0.001 c 0.232,-0.181 0.473,-0.369 0.643,-0.62 0.18,-0.268 0.272,-0.582 0.265,-0.921 0.007,-0.325 -0.085,-0.639 -0.265,-0.907 -0.17,-0.251 -0.41,-0.439 -0.643,-0.621 -0.361,-0.281 -0.701,-0.547 -0.701,-1.009 v -2.823 l -16.665,0.001 -16.665,-0.001 v 2.823 c 0,0.462 -0.341,0.728 -0.701,1.009 -0.232,0.182 -0.473,0.37 -0.643,0.621 -0.18,0.268 -0.272,0.582 -0.265,0.921 -0.007,0.325 0.085,0.639 0.265,0.907 0.17,0.251 0.411,0.439 0.643,0.62 0.361,0.282 0.701,0.548 0.701,1.01 v 9.213 c 0,0.462 -0.341,0.729 -0.701,1.01 -0.232,0.182 -0.473,0.37 -0.643,0.621 -0.18,0.268 -0.272,0.581 -0.265,0.921 -0.007,0.325 0.085,0.638 0.265,0.906 0.17,0.253 0.421,0.449 0.643,0.622 0.361,0.281 0.701,0.547 0.701,1.009 v 2.907 h 0.424 c 1.948,10e-4 3.657,0.044 4.848,0.554 0.486,0.207 0.934,0.489 1.411,0.789 1.021,0.642 2.179,1.369 3.91,1.369 1.389,0 2.679,-0.519 3.822,-0.98 0.807,-0.324 1.569,-0.63 2.138,-0.63 h 0.224 c 0.569,0 1.331,0.306 2.142,0.632 1.139,0.459 2.429,0.978 3.818,0.978 1.731,0 2.889,-0.727 3.913,-1.371 0.474,-0.298 0.922,-0.58 1.408,-0.787 1.191,-0.51 2.9,-0.553 4.848,-0.554 h 0.424 v -2.907 c 0,-0.462 0.34,-0.728 0.701,-1.01 0.221,-0.172 0.473,-0.368 0.643,-0.62 0.18,-0.269 0.272,-0.582 0.265,-0.921 0.007,-0.326 -0.085,-0.639 -0.265,-0.907 -0.17,-0.251 -0.41,-0.439 -0.643,-0.621 -0.361,-0.281 -0.701,-0.548 -0.701,-1.01 v -9.213 c 0,-0.462 0.34,-0.728 0.7,-1.01 m 63.777,-4.815 c -2.577,-4.122 -7.55,-5.13 -7.757,-5.17 -0.98,-0.173 -1.987,-0.261 -2.992,-0.261 h -0.002 c -5.194,0 -9.995,2.26 -14.865,4.778 -0.548,0.284 -1.157,0.617 -1.813,0.976 -3.108,1.701 -7.447,4.076 -11.119,4.076 -1.068,0 -2.08,-0.201 -2.988,-0.678 l -0.151,-0.08 -0.009,-0.17 c -0.025,-0.479 -0.117,-0.934 -0.272,-1.353 -0.585,-1.566 -2.499,-3.232 -3.432,-3.895 -2.137,-1.537 -4.763,-3.108 -8.037,-3.108 -0.49,0 -0.944,0.07 -1.349,0.208 -0.588,0.2 -1.093,0.556 -1.461,1.03 -0.179,0.23 -0.33,0.492 -0.449,0.778 -0.095,0.227 -0.153,0.451 -0.188,0.728 l -0.026,0.192 -0.186,0.056 c -1.268,0.38 -2.025,1.21 -2.025,2.22 0,0.76 0.561,1.425 1.105,2.068 0.846,1.002 1.577,1.867 0.385,2.998 -0.112,0.105 -0.242,0.202 -0.369,0.296 -0.173,0.128 -0.337,0.249 -0.485,0.408 -1.046,1.123 -0.428,3.454 -0.059,4.846 l 0.04,0.151 c 0.402,1.525 1.017,3.103 1.881,4.822 1.171,2.328 2.586,4.952 4.57,6.611 0.039,0.033 0.09,0.047 0.142,0.04 0.05,-0.008 0.096,-0.036 0.124,-0.079 0.04,-0.061 0.256,-0.394 0.567,-0.913 l 0.334,-0.557 0.206,0.617 c 0.551,1.647 1.461,2.713 2.704,3.168 1.332,0.49 2.573,-0.196 3.194,-0.648 l 0.261,-0.191 0.169,0.276 c 0.398,0.647 1.13,1.43 2.359,1.486 1.348,0.06 2.448,-0.86 2.982,-1.416 l 0.192,-0.201 0.215,0.179 c 0.603,0.504 2.176,1.652 3.756,1.439 1.494,-0.201 2.065,-1.505 2.24,-2.055 l 0.106,-0.332 0.312,0.154 c 0.704,0.349 2.075,0.809 3.363,-0.006 0.827,-0.525 0.925,-1.42 0.862,-2.08 l -0.036,-0.388 0.384,0.065 c 0.968,0.164 2.751,0.275 3.809,-0.805 0.832,-0.851 0.886,-1.951 0.786,-2.725 l -0.049,-0.38 0.381,0.045 c 0.85,0.1 1.991,0.019 2.606,-0.935 0.417,-0.647 0.254,-1.561 0.12,-2.047 l -0.082,-0.298 0.3,-0.073 c 0.494,-0.12 1.362,-0.428 1.62,-1.138 0.192,-0.527 0.13,-1.407 -0.169,-2.416 l -0.077,-0.259 0.251,-0.103 c 0.428,-0.176 1.213,-0.596 1.636,-1.433 0.415,-0.82 0.396,-1.839 -0.056,-3.028 l -0.073,-0.193 0.154,-0.137 c 1.108,-0.983 2.223,-1.885 3.317,-2.68 2.22,-1.614 5.68,-2.47 8.031,-0.537 0.888,0.73 1.283,2.063 0.983,3.317 -0.267,1.11 -1.001,1.875 -2.011,2.099 -1.775,0.39 -3.184,-1.297 -4.328,-2.999 -0.037,-0.056 -0.101,-0.085 -0.167,-0.079 -0.066,0.006 -0.123,0.048 -0.149,0.109 -1.052,2.516 -1.103,4.604 -0.153,6.206 0.807,1.359 2.36,2.312 4.263,2.615 l 0.255,0.041 -0.003,0.258 c -0.034,2.98 0.68,5.152 2.121,6.456 0.875,0.793 2.485,1.661 5.183,1.297 0.055,-0.007 0.105,-0.041 0.133,-0.088 0.027,-0.049 0.031,-0.108 0.01,-0.16 -1.982,-4.774 -1.492,-6.562 -0.415,-10.483 0.094,-0.345 0.193,-0.706 0.294,-1.086 v 10e-4 c 0.996,-3.716 0.692,-6.894 -0.904,-9.447 m 40.864,4.815 v 0 c 0.233,-0.181 0.473,-0.369 0.643,-0.62 0.18,-0.268 0.272,-0.582 0.265,-0.921 0.007,-0.325 -0.085,-0.639 -0.265,-0.907 -0.17,-0.251 -0.41,-0.439 -0.643,-0.621 -0.361,-0.281 -0.701,-0.547 -0.701,-1.009 v -2.823 l -16.665,0.001 -16.665,-0.001 v 2.823 c 0,0.462 -0.34,0.728 -0.7,1.009 -0.234,0.182 -0.474,0.37 -0.643,0.621 -0.182,0.268 -0.273,0.582 -0.266,0.921 -0.007,0.325 0.084,0.639 0.266,0.907 0.169,0.251 0.41,0.439 0.643,0.62 0.36,0.282 0.7,0.548 0.7,1.01 v 9.213 c 0,0.462 -0.34,0.729 -0.7,1.01 -0.234,0.182 -0.474,0.37 -0.643,0.621 -0.182,0.268 -0.273,0.581 -0.266,0.921 -0.007,0.325 0.084,0.638 0.266,0.906 0.169,0.253 0.42,0.449 0.643,0.622 0.36,0.281 0.7,0.547 0.7,1.009 v 2.907 h 0.424 c 1.948,10e-4 3.658,0.044 4.848,0.554 0.486,0.207 0.934,0.489 1.412,0.789 1.02,0.642 2.178,1.369 3.909,1.369 1.389,0 2.679,-0.519 3.822,-0.98 0.807,-0.324 1.569,-0.63 2.138,-0.63 h 0.225 c 0.568,0 1.33,0.306 2.142,0.632 1.137,0.459 2.429,0.978 3.817,0.978 1.732,0 2.889,-0.727 3.913,-1.371 0.474,-0.298 0.922,-0.58 1.408,-0.787 1.19,-0.51 2.9,-0.553 4.849,-0.554 h 0.423 v -2.907 c 0,-0.462 0.34,-0.728 0.701,-1.01 0.221,-0.172 0.473,-0.368 0.643,-0.62 0.18,-0.269 0.272,-0.582 0.265,-0.921 0.007,-0.326 -0.085,-0.639 -0.265,-0.907 -0.17,-0.251 -0.41,-0.439 -0.643,-0.621 -0.361,-0.281 -0.701,-0.548 -0.701,-1.01 v -9.213 c 0,-0.462 0.34,-0.728 0.701,-1.01"
             style="fill:#231f20;fill-opacity:1;fill-rule:nonzero;stroke:none"
             id="path138" /></g><g
           id="g140"
           transform="translate(56.0117,153.1651)"><path
             d="m 0,0 c 0.528,0 1.032,-0.137 1.528,-0.547 0.165,-0.136 0.316,-0.273 0.45,-0.4 0.346,-0.33 0.325,-0.887 -0.047,-1.189 -0.374,-0.304 -0.8,-0.607 -1.066,-0.79 -0.615,-0.421 -1.668,-1.192 -2.399,-0.586 -0.37,0.307 0.362,0.806 0.042,2.075 C -1.744,-0.444 -0.762,0 0,0"
             style="fill:#231f20;fill-opacity:1;fill-rule:nonzero;stroke:none"
             id="path142" /></g><g
           id="g144"
           transform="translate(97.5479,140.6353)"><path
             d="m 0,0 c -5.202,0 -10.076,2.264 -15.004,4.812 -0.555,0.287 -1.169,0.623 -1.819,0.979 -3.971,2.173 -9.934,5.437 -13.825,3.396 -0.026,-0.511 -0.124,-0.995 -0.291,-1.442 -0.61,-1.635 -2.58,-3.354 -3.537,-4.034 -2.174,-1.565 -4.852,-3.165 -8.212,-3.165 -0.522,0 -1.009,0.076 -1.445,0.224 -0.643,0.219 -1.197,0.609 -1.601,1.13 -0.195,0.251 -0.36,0.536 -0.489,0.847 -0.114,0.273 -0.173,0.531 -0.21,0.804 -1.389,0.416 -2.238,1.355 -2.238,2.507 0,0.869 0.597,1.577 1.175,2.261 0.943,1.115 1.353,1.691 0.408,2.587 -0.098,0.093 -0.215,0.18 -0.339,0.272 -0.177,0.131 -0.36,0.266 -0.528,0.447 -1.158,1.242 -0.514,3.673 -0.129,5.125 l 0.04,0.151 c 0.407,1.546 1.029,3.142 1.904,4.88 1.183,2.355 2.617,5.01 4.644,6.706 0.105,0.088 0.243,0.127 0.378,0.106 0.135,-0.02 0.255,-0.097 0.33,-0.211 0.071,-0.108 0.881,-1.353 1.729,-2.989 3.527,2.109 8.55,2.352 9.128,2.373 3.105,0.115 7.61,-0.373 11.447,-3.335 2.385,-1.84 4.352,-4.119 6.254,-6.323 0.497,-0.575 1.01,-1.17 1.522,-1.747 2.925,-3.295 5.702,-5.881 8.49,-7.908 C -0.089,6.905 3.219,6.072 5.447,7.904 6.249,8.563 6.604,9.775 6.329,10.92 6.09,11.916 5.44,12.599 4.544,12.797 2.945,13.15 1.617,11.542 0.53,9.923 0.432,9.777 0.26,9.697 0.085,9.714 c -0.176,0.016 -0.327,0.129 -0.396,0.292 -1.09,2.608 -1.136,4.786 -0.134,6.473 0.85,1.434 2.502,2.445 4.473,2.758 -0.035,3.07 0.711,5.316 2.219,6.681 0.923,0.835 2.612,1.752 5.424,1.373 0.147,-0.02 0.278,-0.107 0.352,-0.237 0.075,-0.129 0.085,-0.285 0.027,-0.423 -1.943,-4.68 -1.46,-6.437 -0.404,-10.285 0.095,-0.347 0.194,-0.71 0.297,-1.092 C 12.961,11.456 12.645,8.198 11.002,5.572 8.355,1.338 3.261,0.308 3.045,0.266 2.017,0.084 1.002,0 0,0 m -27.759,10.81 c 3.765,0 8.043,-2.342 11.397,-4.178 0.644,-0.353 1.254,-0.686 1.799,-0.968 5.724,-2.961 11.365,-5.528 17.433,-4.455 0.041,0.008 4.904,0.999 7.324,4.878 1.491,2.39 1.768,5.391 0.823,8.919 -0.102,0.38 -0.201,0.741 -0.296,1.087 -1.006,3.662 -1.577,5.747 0.203,10.31 C 8.849,26.536 7.595,25.845 6.891,25.207 5.531,23.977 4.893,21.833 4.997,18.834 5.005,18.583 4.818,18.367 4.566,18.341 2.704,18.147 1.138,17.269 0.379,15.99 -0.355,14.751 -0.396,13.147 0.257,11.211 1.182,12.473 2.748,14.176 4.751,13.733 6,13.458 6.938,12.49 7.261,11.144 7.619,9.65 7.136,8.051 6.056,7.164 3.434,5.008 -0.363,5.919 -2.782,7.678 c -2.844,2.068 -5.672,4.699 -8.643,8.046 -0.516,0.582 -1.033,1.18 -1.531,1.758 -1.871,2.168 -3.806,4.41 -6.114,6.19 -3.611,2.786 -7.878,3.242 -10.826,3.136 -2.006,-0.074 -6.034,-0.638 -8.733,-2.276 0.826,-1.72 1.573,-3.698 1.573,-5.223 0,-0.27 -0.054,-0.543 -0.15,-0.815 1.959,1.156 4.301,0.328 5.623,-1.108 0.292,-0.321 0.594,-0.779 0.943,-1.309 0.512,-0.777 1.093,-1.659 1.79,-2.33 0.103,-0.099 0.156,-0.24 0.145,-0.382 -0.01,-0.143 -0.085,-0.273 -0.201,-0.356 -0.012,-0.008 -1.254,-0.883 -3.008,-2.184 -0.236,-0.175 -0.488,-0.347 -0.711,-0.499 -0.042,-0.028 -0.085,-0.058 -0.131,-0.09 l 1.547,-0.262 c 1.063,0.589 2.23,0.836 3.45,0.836 m -13.533,16.574 c -1.679,-1.589 -2.936,-3.933 -3.992,-6.034 -0.843,-1.678 -1.443,-3.213 -1.833,-4.693 l -0.04,-0.152 c -0.29,-1.094 -0.893,-3.372 -0.096,-4.227 0.107,-0.115 0.248,-0.219 0.397,-0.33 0.142,-0.105 0.288,-0.213 0.427,-0.346 1.646,-1.559 0.502,-2.913 -0.334,-3.902 -0.488,-0.578 -0.949,-1.124 -0.949,-1.642 0,-1.158 1.4,-1.563 1.83,-1.661 0.205,-0.046 0.357,-0.222 0.372,-0.432 0.025,-0.335 0.061,-0.582 0.173,-0.85 0.096,-0.232 0.217,-0.443 0.36,-0.627 0.289,-0.372 0.687,-0.652 1.153,-0.81 0.337,-0.115 0.719,-0.173 1.136,-0.173 3.087,0 5.602,1.51 7.654,2.986 1.227,0.872 2.763,2.426 3.196,3.589 0.117,0.313 0.19,0.639 0.221,0.99 l -2.159,0.368 c -0.02,0.003 -0.039,0.007 -0.058,0.013 -0.226,0.068 -0.38,0.237 -0.413,0.452 -0.067,0.432 0.317,0.695 1.082,1.216 0.226,0.153 0.459,0.312 0.68,0.476 1.133,0.841 2.055,1.506 2.572,1.875 -0.598,0.669 -1.105,1.439 -1.527,2.079 -0.328,0.496 -0.61,0.926 -0.851,1.19 -1.07,1.164 -2.959,1.844 -4.492,0.891 -0.619,-0.385 -1.16,-0.864 -1.733,-1.371 -0.463,-0.41 -0.942,-0.833 -1.467,-1.204 -0.205,-0.145 -0.487,-0.107 -0.646,0.086 -0.16,0.193 -0.144,0.477 0.037,0.651 0.068,0.067 0.15,0.144 0.242,0.229 0.699,0.658 2.335,2.197 2.335,3.288 0,2.526 -2.42,6.682 -3.277,8.075"
             style="fill:#231f20;fill-opacity:1;fill-rule:nonzero;stroke:none"
             id="path146" /></g><g
           id="g148"
           transform="translate(53.0147,143.9478)"><path
             d="m 0,0 c -0.454,0 -0.914,0.028 -1.382,0.083 -0.263,0.031 -0.451,0.27 -0.42,0.533 0.031,0.263 0.269,0.451 0.533,0.419 2.184,-0.258 5.371,0.034 8.15,2.894 0.185,0.19 0.489,0.194 0.678,0.01 C 7.749,3.754 7.753,3.451 7.569,3.261 5.481,1.113 2.886,0 0,0"
             style="fill:#231f20;fill-opacity:1;fill-rule:nonzero;stroke:none"
             id="path150" /></g><g
           id="g152"
           transform="translate(91.4893,151.1441)"><path
             d="M 0,0 C -0.06,0 -0.121,0.012 -0.178,0.037 -0.406,0.136 -0.51,0.4 -0.411,0.627 0.09,1.78 0.159,2.734 -0.207,3.462 -0.699,4.446 -1.854,4.728 -1.866,4.731 -1.99,4.76 -2.098,4.842 -2.158,4.955 c -0.061,0.114 -0.071,0.248 -0.027,0.368 0.167,0.45 0.546,1.765 0.306,2.424 -0.205,0.566 -1.268,0.801 -1.625,0.839 -0.141,0.015 -0.267,0.096 -0.338,0.218 -0.073,0.122 -0.083,0.271 -0.029,0.401 0.15,0.358 0.457,1.412 0.093,1.979 -0.709,1.099 -2.57,0.566 -2.589,0.56 -0.16,-0.047 -0.333,-10e-4 -0.449,0.119 -0.116,0.119 -0.156,0.294 -0.102,0.453 0.004,0.016 0.538,1.698 -0.509,2.767 -1.224,1.25 -3.846,0.515 -3.873,0.507 -0.159,-0.045 -0.331,0 -0.446,0.12 -0.115,0.12 -0.156,0.292 -0.104,0.45 0.018,0.058 0.449,1.45 -0.488,2.045 -1.492,0.944 -3.2,-0.265 -3.217,-0.277 -0.129,-0.093 -0.298,-0.111 -0.443,-0.047 -0.145,0.064 -0.246,0.201 -0.264,0.358 -0.009,0.077 -0.253,1.902 -1.858,2.118 -1.735,0.231 -3.573,-1.554 -3.591,-1.571 -0.092,-0.091 -0.219,-0.138 -0.347,-0.129 -0.129,0.01 -0.247,0.073 -0.325,0.176 -0.012,0.015 -1.236,1.596 -2.776,1.518 -1.487,-0.067 -2.07,-1.574 -2.075,-1.589 -0.054,-0.141 -0.175,-0.247 -0.324,-0.279 -0.148,-0.033 -0.302,0.011 -0.41,0.118 -0.014,0.013 -1.484,1.419 -2.994,0.864 -1.9,-0.696 -2.438,-3.02 -2.615,-3.783 l -0.006,-0.027 c -0.056,-0.24 -0.296,-0.391 -0.538,-0.335 -0.241,0.056 -0.391,0.297 -0.335,0.538 l 0.006,0.026 c 0.204,0.881 0.825,3.559 3.179,4.422 1.459,0.536 2.797,-0.196 3.473,-0.688 0.381,0.623 1.189,1.565 2.599,1.628 1.483,0.07 2.67,-0.943 3.211,-1.506 0.696,0.581 2.314,1.731 3.987,1.505 1.462,-0.197 2.195,-1.347 2.486,-2.261 0.782,0.387 2.252,0.867 3.656,-0.023 0.972,-0.615 1.067,-1.659 1,-2.359 1.018,0.171 2.918,0.288 4.072,-0.892 0.94,-0.96 0.969,-2.203 0.87,-2.971 0.825,0.097 2.17,0.051 2.892,-1.07 0.469,-0.728 0.321,-1.696 0.158,-2.289 0.608,-0.148 1.531,-0.505 1.83,-1.327 C -0.745,7.253 -1.011,6.086 -1.2,5.45 -0.685,5.238 0.132,4.778 0.59,3.875 1.085,2.896 1.025,1.683 0.411,0.27 0.338,0.101 0.173,0 0,0"
             style="fill:#231f20;fill-opacity:1;fill-rule:nonzero;stroke:none"
             id="path154" /></g><g
           id="g156"
           transform="translate(89.2515,144.9575)"><path
             d="m 0,0 c -0.018,0 -0.036,0.001 -0.055,0.003 -0.245,0.03 -0.42,0.254 -0.39,0.499 0.21,1.715 -0.799,2.027 -1.689,2.303 C -2.37,2.878 -2.574,2.941 -2.735,3.034 -3.209,3.309 -3.228,3.88 -3.247,4.485 -3.268,5.124 -3.291,5.848 -3.775,6.389 -4.607,7.32 -6.259,6.717 -6.276,6.712 -6.425,6.656 -6.593,6.684 -6.716,6.784 -6.84,6.885 -6.9,7.043 -6.875,7.201 c 0.002,0.017 0.264,1.828 -0.778,2.714 -0.887,0.752 -2.561,0.57 -3.131,0.436 -0.14,-0.032 -0.285,0.003 -0.394,0.096 -0.109,0.093 -0.166,0.231 -0.155,0.373 0.082,1.123 -0.366,2.087 -1.229,2.646 -0.73,0.473 -1.612,0.537 -2.301,0.165 -1.883,-1.013 -2.62,-1.082 -4.593,0.314 -0.615,0.436 -1.231,0.581 -1.827,0.429 -0.755,-0.192 -1.449,-0.864 -1.955,-1.893 -0.109,-0.222 -0.378,-0.314 -0.6,-0.205 -0.222,0.109 -0.313,0.378 -0.204,0.6 0.624,1.269 1.524,2.109 2.538,2.367 0.85,0.216 1.738,0.02 2.567,-0.566 1.66,-1.176 2.04,-1.123 3.65,-0.257 0.977,0.527 2.208,0.449 3.213,-0.202 0.979,-0.635 1.569,-1.693 1.638,-2.901 0.816,0.099 2.348,0.142 3.363,-0.719 0.964,-0.819 1.127,-2.1 1.126,-2.876 0.755,0.144 2.007,0.196 2.84,-0.735 0.701,-0.785 0.733,-1.76 0.755,-2.473 0.008,-0.245 0.02,-0.613 0.078,-0.711 C -2.194,3.762 -2.029,3.71 -1.869,3.661 -1.021,3.398 0.745,2.852 0.444,0.394 0.417,0.167 0.224,0 0,0"
             style="fill:#231f20;fill-opacity:1;fill-rule:nonzero;stroke:none"
             id="path158" /></g><g
           id="g160"
           transform="translate(44.709,151.4229)"><path
             d="m 0,0 c -0.373,0.291 -0.583,0.47 -0.583,0.768 v 9.213 c 0,0.299 0.21,0.478 0.583,0.769 0.24,0.188 0.512,0.399 0.708,0.691 0.217,0.321 0.327,0.696 0.318,1.085 C 1.035,12.915 0.925,13.29 0.708,13.611 0.512,13.902 0.24,14.114 0,14.302 c -0.373,0.291 -0.583,0.47 -0.583,0.768 v 3.213 h -0.729 c -1.709,0.002 -3.54,0.02 -4.729,0.529 -0.464,0.198 -0.902,0.474 -1.367,0.766 -1.056,0.664 -2.253,1.417 -4.074,1.417 -1.447,0 -2.767,-0.531 -3.932,-1 -0.78,-0.314 -1.517,-0.611 -2.028,-0.611 h -0.107 -0.01 -0.108 c -0.509,0 -1.247,0.297 -2.027,0.611 -1.165,0.469 -2.485,1 -3.932,1 -1.821,0 -3.018,-0.753 -4.074,-1.417 -0.465,-0.292 -0.903,-0.568 -1.367,-0.766 -1.189,-0.509 -3.02,-0.527 -4.728,-0.529 h -0.73 V 15.07 c 0,-0.298 -0.211,-0.477 -0.583,-0.768 -0.24,-0.188 -0.512,-0.4 -0.708,-0.691 -0.217,-0.321 -0.327,-0.696 -0.318,-1.085 -0.009,-0.389 0.101,-0.764 0.318,-1.085 0.196,-0.292 0.468,-0.503 0.708,-0.691 0.372,-0.291 0.583,-0.47 0.583,-0.769 V 0.768 c 0,-0.298 -0.211,-0.477 -0.583,-0.768 -0.24,-0.187 -0.512,-0.4 -0.708,-0.691 -0.217,-0.321 -0.327,-0.696 -0.318,-1.085 -0.009,-0.389 0.101,-0.764 0.318,-1.085 0.196,-0.291 0.468,-0.504 0.708,-0.691 0.372,-0.291 0.583,-0.47 0.583,-0.768 v -3.085 l -0.024,-0.042 h 0.024 v -0.002 l 16.971,10e-4 16.971,-10e-4 v 0.002 h 0.024 l -0.024,0.042 v 3.085 c 0,0.298 0.21,0.477 0.583,0.768 0.24,0.187 0.512,0.4 0.708,0.691 0.217,0.321 0.327,0.696 0.318,1.085 0.009,0.389 -0.101,0.764 -0.318,1.085 C 0.512,-0.4 0.24,-0.187 0,0 m -15.012,18.999 c 1.074,0.431 2.291,0.921 3.53,0.921 1.511,0 2.478,-0.608 3.502,-1.252 0.48,-0.302 0.976,-0.613 1.517,-0.844 0.442,-0.189 0.919,-0.32 1.42,-0.411 V -2.15 c -0.8,0.123 -1.674,0.126 -2.592,0.129 -1.406,0.004 -2.859,0.009 -4.258,0.434 -0.476,0.144 -0.956,0.297 -1.425,0.446 -1.452,0.464 -2.717,0.868 -3.611,0.949 -0.017,0.003 -0.038,0.005 -0.056,0.007 v 18.536 c 0.596,0.095 1.244,0.354 1.973,0.648 m -13.634,-1.175 c 0.543,0.231 1.039,0.542 1.518,0.844 1.024,0.644 1.991,1.252 3.502,1.252 1.239,0 2.457,-0.49 3.53,-0.921 0.755,-0.304 1.423,-0.571 2.036,-0.657 v -18.52 c -0.039,-0.005 -0.076,-0.009 -0.109,-0.014 -0.894,-0.081 -2.16,-0.485 -3.612,-0.949 -0.469,-0.149 -0.948,-0.302 -1.425,-0.446 -1.399,-0.425 -2.852,-0.43 -4.257,-0.434 -0.919,-0.003 -1.792,-0.006 -2.593,-0.129 v 19.565 c 0.499,0.09 0.972,0.221 1.41,0.409 M 0.086,-1.791 C 0.092,-1.989 0.039,-2.172 -0.071,-2.335 -0.184,-2.503 -0.375,-2.653 -0.578,-2.811 -0.999,-3.14 -1.523,-3.549 -1.523,-4.32 v -2.052 h -16.026 -0.01 -16.026 v 2.052 c 0,0.771 -0.523,1.18 -0.945,1.509 -0.202,0.158 -0.394,0.308 -0.507,0.476 -0.11,0.163 -0.163,0.346 -0.156,0.544 v 0.015 0.014 c -0.007,0.199 0.046,0.382 0.156,0.545 0.113,0.168 0.305,0.318 0.507,0.476 0.422,0.329 0.945,0.738 0.945,1.509 v 9.213 c 0,0.772 -0.523,1.182 -0.945,1.51 -0.202,0.158 -0.394,0.308 -0.507,0.476 -0.11,0.163 -0.163,0.346 -0.156,0.545 v 0.014 0.014 c -0.007,0.199 0.046,0.382 0.156,0.545 0.113,0.168 0.305,0.318 0.507,0.476 0.422,0.329 0.945,0.738 0.945,1.509 v 2.138 c 0.022,0 0.044,0 0.068,0 0.834,0 1.646,0.007 2.413,0.072 V -3.898 h 11.669 c 0.222,-0.835 0.982,-1.454 1.886,-1.454 0.903,0 1.663,0.619 1.885,1.454 h 11.67 v 21.177 c 0.764,-0.064 1.572,-0.071 2.402,-0.071 0.025,0 0.047,0 0.069,0 V 15.07 c 0,-0.771 0.524,-1.18 0.945,-1.509 0.203,-0.158 0.394,-0.308 0.507,-0.476 0.11,-0.163 0.163,-0.346 0.157,-0.545 L 0.085,12.526 0.086,12.512 C 0.092,12.313 0.039,12.13 -0.071,11.967 -0.184,11.799 -0.375,11.649 -0.578,11.491 -0.999,11.163 -1.523,10.753 -1.523,9.981 V 0.768 c 0,-0.771 0.524,-1.18 0.945,-1.509 0.203,-0.158 0.394,-0.308 0.507,-0.476 0.11,-0.163 0.163,-0.346 0.157,-0.545 L 0.085,-1.776 Z"
             style="fill:#231f20;fill-opacity:1;fill-rule:nonzero;stroke:none"
             id="path162" /></g><g
           id="g164"
           transform="translate(149.3491,151.4229)"><path
             d="m 0,0 c -0.372,0.291 -0.583,0.47 -0.583,0.768 v 9.213 c 0,0.299 0.211,0.478 0.583,0.769 0.24,0.188 0.512,0.399 0.708,0.691 0.217,0.321 0.327,0.696 0.318,1.085 C 1.035,12.915 0.925,13.29 0.708,13.611 0.512,13.902 0.24,14.114 0,14.302 c -0.372,0.291 -0.583,0.47 -0.583,0.768 v 3.213 h -0.729 c -1.709,0.002 -3.54,0.02 -4.729,0.529 -0.464,0.198 -0.902,0.474 -1.366,0.766 -1.057,0.664 -2.255,1.417 -4.075,1.417 -1.447,0 -2.767,-0.531 -3.932,-1 -0.781,-0.314 -1.518,-0.611 -2.027,-0.611 h -0.109 -0.008 -0.108 c -0.511,0 -1.248,0.297 -2.027,0.611 -1.166,0.469 -2.486,1 -3.933,1 -1.821,0 -3.018,-0.753 -4.074,-1.417 -0.464,-0.292 -0.903,-0.568 -1.367,-0.766 -1.189,-0.509 -3.02,-0.527 -4.728,-0.529 h -0.729 V 15.07 c 0,-0.298 -0.211,-0.477 -0.583,-0.768 -0.241,-0.188 -0.513,-0.4 -0.709,-0.691 -0.217,-0.321 -0.327,-0.696 -0.318,-1.085 -0.009,-0.389 0.101,-0.764 0.318,-1.085 0.196,-0.292 0.468,-0.503 0.709,-0.691 0.372,-0.291 0.583,-0.47 0.583,-0.769 V 0.768 c 0,-0.298 -0.211,-0.477 -0.583,-0.768 -0.241,-0.187 -0.513,-0.4 -0.709,-0.691 -0.217,-0.321 -0.327,-0.696 -0.318,-1.085 -0.009,-0.389 0.101,-0.764 0.318,-1.085 0.196,-0.291 0.468,-0.504 0.709,-0.691 0.372,-0.291 0.583,-0.47 0.583,-0.768 v -3.085 l -0.024,-0.042 h 0.024 v -0.002 l 16.97,10e-4 16.971,-10e-4 v 0.002 h 0.024 l -0.024,0.042 v 3.085 c 0,0.298 0.211,0.477 0.583,0.768 0.24,0.187 0.512,0.4 0.708,0.691 0.217,0.321 0.327,0.696 0.318,1.085 0.009,0.389 -0.101,0.764 -0.318,1.085 C 0.512,-0.4 0.24,-0.187 0,0 m -15.012,18.999 c 1.074,0.431 2.292,0.921 3.53,0.921 1.511,0 2.478,-0.608 3.502,-1.252 0.479,-0.302 0.976,-0.613 1.518,-0.844 0.441,-0.189 0.917,-0.32 1.42,-0.411 V -2.15 c -0.801,0.123 -1.675,0.126 -2.593,0.129 -1.406,0.004 -2.859,0.009 -4.258,0.434 -0.477,0.144 -0.956,0.297 -1.425,0.446 -1.452,0.464 -2.717,0.868 -3.612,0.949 -0.017,0.003 -0.037,0.005 -0.055,0.007 v 18.536 c 0.596,0.095 1.245,0.354 1.973,0.648 m -13.633,-1.175 c 0.542,0.231 1.038,0.542 1.518,0.844 1.023,0.644 1.99,1.252 3.501,1.252 1.239,0 2.456,-0.49 3.53,-0.921 0.754,-0.304 1.423,-0.571 2.036,-0.657 v -18.52 c -0.038,-0.005 -0.076,-0.009 -0.109,-0.014 -0.894,-0.081 -2.16,-0.485 -3.611,-0.949 -0.469,-0.149 -0.95,-0.302 -1.426,-0.446 -1.398,-0.425 -2.852,-0.43 -4.257,-0.434 -0.918,-0.003 -1.792,-0.006 -2.593,-0.129 v 19.565 c 0.499,0.09 0.972,0.221 1.411,0.409 M 0.085,-1.791 C 0.093,-1.989 0.04,-2.172 -0.071,-2.335 -0.184,-2.503 -0.376,-2.653 -0.578,-2.811 -0.999,-3.14 -1.522,-3.549 -1.522,-4.32 v -2.052 h -16.028 -0.008 -16.026 v 2.052 c 0,0.771 -0.524,1.18 -0.945,1.509 -0.202,0.158 -0.394,0.308 -0.508,0.476 -0.109,0.163 -0.163,0.346 -0.157,0.544 l 0.001,0.015 -0.001,0.014 c -0.006,0.199 0.048,0.382 0.157,0.545 0.114,0.168 0.306,0.318 0.508,0.476 0.421,0.329 0.945,0.738 0.945,1.509 v 9.213 c 0,0.772 -0.524,1.182 -0.945,1.51 -0.202,0.158 -0.394,0.308 -0.508,0.476 -0.109,0.163 -0.163,0.346 -0.157,0.545 l 0.001,0.014 -0.001,0.014 c -0.006,0.199 0.048,0.382 0.157,0.545 0.114,0.168 0.306,0.318 0.508,0.476 0.421,0.329 0.945,0.738 0.945,1.509 v 2.138 c 0.022,0 0.043,0 0.067,0 0.835,0 1.646,0.007 2.413,0.072 V -3.898 h 11.67 c 0.221,-0.835 0.981,-1.454 1.884,-1.454 0.904,0 1.665,0.619 1.886,1.454 h 11.67 v 21.177 c 0.764,-0.064 1.572,-0.071 2.403,-0.071 0.024,0 0.047,0 0.069,0 V 15.07 c 0,-0.771 0.523,-1.18 0.944,-1.509 0.202,-0.158 0.394,-0.308 0.507,-0.476 C 0.04,12.922 0.093,12.739 0.085,12.54 V 12.526 12.512 C 0.093,12.313 0.04,12.13 -0.071,11.967 -0.184,11.799 -0.376,11.649 -0.578,11.491 -0.999,11.163 -1.522,10.753 -1.522,9.981 V 0.768 c 0,-0.771 0.523,-1.18 0.944,-1.509 0.202,-0.158 0.394,-0.308 0.507,-0.476 0.111,-0.163 0.164,-0.346 0.156,-0.545 v -0.014 z"
             style="fill:#231f20;fill-opacity:1;fill-rule:nonzero;stroke:none"
             id="path166" /></g><g
           id="g168"
           transform="translate(155.9316,181.3389)"><path
             d="m 0,0 h -152.912 c 0,0 0.003,-75.222 0,-76.225 -0.102,-33.398 18.485,-57.66 34.096,-72.132 17.018,-15.78 36.184,-25.175 42.205,-26.486 l 0.155,-0.033 0.155,0.033 c 6.021,1.311 25.187,10.706 42.205,26.486 C -18.485,-133.885 0.102,-109.623 0,-76.225 -0.003,-75.222 0,0 0,0 m -2.123,-2.122 c 0,-4.871 -10e-4,-25.535 -10e-4,-43.811 h -148.665 c 0,18.276 -0.001,38.94 -0.001,43.811 z m -119.168,-118.117 c -5.114,5.115 -5.114,13.406 0,18.522 5.115,5.114 13.407,5.114 18.521,0 5.115,-5.116 5.115,-13.407 0,-18.522 -5.114,-5.115 -13.406,-5.115 -18.521,0 m 85.752,-26.563 c -17.682,-16.395 -36.009,-24.656 -40.917,-25.896 -4.908,1.24 -23.235,9.501 -40.918,25.896 -0.43,0.399 -0.863,0.806 -1.297,1.22 l 42.215,44.82 42.215,-44.82 c -0.434,-0.414 -0.867,-0.821 -1.298,-1.22 m -54.011,68.314 c 0,7.231 5.863,13.093 13.094,13.093 7.231,0 13.094,-5.862 13.094,-13.093 0,-7.232 -5.863,-13.095 -13.094,-13.095 -7.231,0 -13.094,5.863 -13.094,13.095 m 57.929,-41.751 c -5.115,-5.115 -13.407,-5.115 -18.522,0 -5.113,5.115 -5.113,13.406 0,18.522 5.115,5.114 13.407,5.114 18.522,0 5.115,-5.116 5.115,-13.407 0,-18.522 m 21.027,6.627 -65.862,63.522 -65.862,-63.522 c -5.113,10.755 -8.515,23.234 -8.472,37.382 0.001,0.416 0.002,13.237 0.001,28.175 H -2.124 c 0,-14.938 0,-27.759 10e-4,-28.175 0.043,-14.148 -3.359,-26.627 -8.471,-37.382"
             style="fill:#231f20;fill-opacity:1;fill-rule:nonzero;stroke:none"
             id="path170" /></g></g></g></g></svg>
